<svg xmlns="http://www.w3.org/2000/svg" xmlns:xlink="http://www.w3.org/1999/xlink" contentStyleType="text/css" height="386px" preserveAspectRatio="none" style="width:838px;height:386px;background:#FFFFFF;" version="1.1" viewBox="0 0 838 386" width="838px" zoomAndPan="magnify"><defs/><g><line style="stroke:#181818;stroke-width:0.5;stroke-dasharray:5.0,5.0;" x1="57" x2="57" y1="81.2969" y2="305.2266"/><line style="stroke:#181818;stroke-width:0.5;stroke-dasharray:5.0,5.0;" x1="293.165" x2="293.165" y1="81.2969" y2="305.2266"/><line style="stroke:#181818;stroke-width:0.5;stroke-dasharray:5.0,5.0;" x1="565.646" x2="565.646" y1="81.2969" y2="305.2266"/><line style="stroke:#181818;stroke-width:0.5;stroke-dasharray:5.0,5.0;" x1="803.4756" x2="803.4756" y1="81.2969" y2="305.2266"/><text fill="#000000" font-family="sans-serif" font-size="14" lengthAdjust="spacing" textLength="99.0801" x="5" y="77.9951">Administrador</text><ellipse cx="57.54" cy="13.5" fill="#E2E2F0" rx="8" ry="8" style="stroke:#181818;stroke-width:0.5;"/><path d="M57.54,21.5 L57.54,48.5 M44.54,29.5 L70.54,29.5 M57.54,48.5 L44.54,63.5 M57.54,48.5 L70.54,63.5 " fill="none" style="stroke:#181818;stroke-width:0.5;"/><text fill="#000000" font-family="sans-serif" font-size="14" lengthAdjust="spacing" textLength="99.0801" x="5" y="317.2217">Administrador</text><ellipse cx="57.54" cy="329.0234" fill="#E2E2F0" rx="8" ry="8" style="stroke:#181818;stroke-width:0.5;"/><path d="M57.54,337.0234 L57.54,364.0234 M44.54,345.0234 L70.54,345.0234 M57.54,364.0234 L44.54,379.0234 M57.54,364.0234 L70.54,379.0234 " fill="none" style="stroke:#181818;stroke-width:0.5;"/><text fill="#000000" font-family="sans-serif" font-size="14" lengthAdjust="spacing" textLength="132.6104" x="224.165" y="77.9951">AdministradorView</text><path d="M272.9702,37 L272.9702,61 M272.9702,49 L289.9702,49 " fill="none" style="stroke:#181818;stroke-width:0.5;"/><ellipse cx="301.9702" cy="49" fill="#E2E2F0" rx="12" ry="12" style="stroke:#181818;stroke-width:0.5;"/><text fill="#000000" font-family="sans-serif" font-size="14" lengthAdjust="spacing" textLength="132.6104" x="224.165" y="317.2217">AdministradorView</text><path d="M272.9702,324.5234 L272.9702,348.5234 M272.9702,336.5234 L289.9702,336.5234 " fill="none" style="stroke:#181818;stroke-width:0.5;"/><ellipse cx="301.9702" cy="336.5234" fill="#E2E2F0" rx="12" ry="12" style="stroke:#181818;stroke-width:0.5;"/><text fill="#000000" font-family="sans-serif" font-size="14" lengthAdjust="spacing" textLength="168.2529" x="478.646" y="77.9951">AdministradorController</text><ellipse cx="565.7725" cy="49" fill="#E2E2F0" rx="12" ry="12" style="stroke:#181818;stroke-width:0.5;"/><polygon fill="#181818" points="561.7725,37,567.7725,32,565.7725,37,567.7725,42,561.7725,37" style="stroke:#181818;stroke-width:1;"/><text fill="#000000" font-family="sans-serif" font-size="14" lengthAdjust="spacing" textLength="168.2529" x="478.646" y="317.2217">AdministradorController</text><ellipse cx="565.7725" cy="336.5234" fill="#E2E2F0" rx="12" ry="12" style="stroke:#181818;stroke-width:0.5;"/><polygon fill="#181818" points="561.7725,324.5234,567.7725,319.5234,565.7725,324.5234,567.7725,329.5234,561.7725,324.5234" style="stroke:#181818;stroke-width:1;"/><text fill="#000000" font-family="sans-serif" font-size="14" lengthAdjust="spacing" textLength="62.2754" x="769.4756" y="77.9951">Producto</text><ellipse cx="803.6133" cy="49" fill="#E2E2F0" rx="12" ry="12" style="stroke:#181818;stroke-width:0.5;"/><line style="stroke:#181818;stroke-width:0.5;" x1="791.6133" x2="815.6133" y1="63" y2="63"/><text fill="#000000" font-family="sans-serif" font-size="14" lengthAdjust="spacing" textLength="62.2754" x="769.4756" y="317.2217">Producto</text><ellipse cx="803.6133" cy="336.5234" fill="#E2E2F0" rx="12" ry="12" style="stroke:#181818;stroke-width:0.5;"/><line style="stroke:#181818;stroke-width:0.5;" x1="791.6133" x2="815.6133" y1="350.5234" y2="350.5234"/><polygon fill="#181818" points="281.4702,108.4297,291.4702,112.4297,281.4702,116.4297,285.4702,112.4297" style="stroke:#181818;stroke-width:1;"/><line style="stroke:#181818;stroke-width:1;" x1="57.54" x2="287.4702" y1="112.4297" y2="112.4297"/><text fill="#000000" font-family="sans-serif" font-size="13" font-weight="bold" lengthAdjust="spacing" textLength="9.0454" x="64.54" y="107.3638">1</text><text fill="#000000" font-family="sans-serif" font-size="13" lengthAdjust="spacing" textLength="198.8848" x="77.5854" y="107.3638">Ingresar a la gesti&#243;n del men&#250;</text><polygon fill="#181818" points="553.7725,137.5625,563.7725,141.5625,553.7725,145.5625,557.7725,141.5625" style="stroke:#181818;stroke-width:1;"/><line style="stroke:#181818;stroke-width:1;" x1="293.4702" x2="559.7725" y1="141.5625" y2="141.5625"/><text fill="#000000" font-family="sans-serif" font-size="13" font-weight="bold" lengthAdjust="spacing" textLength="9.0454" x="300.4702" y="136.4966">2</text><text fill="#000000" font-family="sans-serif" font-size="13" lengthAdjust="spacing" textLength="135.1162" x="313.5156" y="136.4966">iniciarGestionMenu()</text><polygon fill="#181818" points="281.4702,166.6953,291.4702,170.6953,281.4702,174.6953,285.4702,170.6953" style="stroke:#181818;stroke-width:1;"/><line style="stroke:#181818;stroke-width:1;" x1="57.54" x2="287.4702" y1="170.6953" y2="170.6953"/><text fill="#000000" font-family="sans-serif" font-size="13" font-weight="bold" lengthAdjust="spacing" textLength="9.0454" x="64.54" y="165.6294">3</text><text fill="#000000" font-family="sans-serif" font-size="13" lengthAdjust="spacing" textLength="114.4229" x="77.5854" y="165.6294">Agregar producto</text><polygon fill="#181818" points="553.7725,195.8281,563.7725,199.8281,553.7725,203.8281,557.7725,199.8281" style="stroke:#181818;stroke-width:1;"/><line style="stroke:#181818;stroke-width:1;" x1="293.4702" x2="559.7725" y1="199.8281" y2="199.8281"/><text fill="#000000" font-family="sans-serif" font-size="13" font-weight="bold" lengthAdjust="spacing" textLength="9.0454" x="300.4702" y="194.7622">4</text><text fill="#000000" font-family="sans-serif" font-size="13" lengthAdjust="spacing" textLength="218.1182" x="313.5156" y="194.7622">agregarProducto(nombre, precio)</text><polygon fill="#181818" points="791.6133,224.9609,801.6133,228.9609,791.6133,232.9609,795.6133,228.9609" style="stroke:#181818;stroke-width:1;"/><line style="stroke:#181818;stroke-width:1;" x1="565.7725" x2="797.6133" y1="228.9609" y2="228.9609"/><text fill="#000000" font-family="sans-serif" font-size="13" font-weight="bold" lengthAdjust="spacing" textLength="9.0454" x="572.7725" y="223.895">5</text><text fill="#000000" font-family="sans-serif" font-size="13" lengthAdjust="spacing" textLength="200.7954" x="585.8179" y="223.895">crearProducto(nombre, precio)</text><polygon fill="#181818" points="576.7725,254.0938,566.7725,258.0938,576.7725,262.0938,572.7725,258.0938" style="stroke:#181818;stroke-width:1;"/><line style="stroke:#181818;stroke-width:1;stroke-dasharray:2.0,2.0;" x1="570.7725" x2="802.6133" y1="258.0938" y2="258.0938"/><text fill="#000000" font-family="sans-serif" font-size="13" font-weight="bold" lengthAdjust="spacing" textLength="9.0454" x="582.7725" y="253.0278">6</text><text fill="#000000" font-family="sans-serif" font-size="13" lengthAdjust="spacing" textLength="106.6216" x="595.8179" y="253.0278">Producto creado</text><polygon fill="#181818" points="304.4702,283.2266,294.4702,287.2266,304.4702,291.2266,300.4702,287.2266" style="stroke:#181818;stroke-width:1;"/><line style="stroke:#181818;stroke-width:1;stroke-dasharray:2.0,2.0;" x1="298.4702" x2="564.7725" y1="287.2266" y2="287.2266"/><text fill="#000000" font-family="sans-serif" font-size="13" font-weight="bold" lengthAdjust="spacing" textLength="9.0454" x="310.4702" y="282.1606">7</text><text fill="#000000" font-family="sans-serif" font-size="13" lengthAdjust="spacing" textLength="235.2568" x="323.5156" y="282.1606">Confirmaci&#243;n de producto agregado</text><!--SRC=[bP6n2i9038RtUugC2le27GHn40V1oJszY-MWbqXwX_Ivt5nzCQzebL8LNV_a__8dmHI5KoX9ZK4RHM7fWcVVH4KdQaf9x53ReRptT39MEAhKmyhgBjQPHnnzR66dub8c6pDeXFbYp2nWmvLIWme8DK95JVJNCuEZ6WBnzM96dX7e5Q60h5gFkkuumblYD9d-5cIPSrGvnx6F_zzWlDlxvISieLIQPHnPBrFpmTWnUqy1LkaBeY_0_5kGPrS7S_9vyFipv8w3ru3syORdFHuREha1]--></g></svg>