<svg xmlns="http://www.w3.org/2000/svg" xmlns:xlink="http://www.w3.org/1999/xlink" contentStyleType="text/css" height="661px" preserveAspectRatio="none" style="width:1150px;height:661px;background:#FFFFFF;" version="1.1" viewBox="0 0 1150 661" width="1150px" zoomAndPan="magnify"><defs/><g><line style="stroke:#181818;stroke-width:0.5;stroke-dasharray:5.0,5.0;" x1="32" x2="32" y1="81.2969" y2="580.4219"/><line style="stroke:#181818;stroke-width:0.5;stroke-dasharray:5.0,5.0;" x1="213.6958" x2="213.6958" y1="81.2969" y2="580.4219"/><line style="stroke:#181818;stroke-width:0.5;stroke-dasharray:5.0,5.0;" x1="470.6187" x2="470.6187" y1="81.2969" y2="580.4219"/><line style="stroke:#181818;stroke-width:0.5;stroke-dasharray:5.0,5.0;" x1="712.0127" x2="712.0127" y1="81.2969" y2="580.4219"/><line style="stroke:#181818;stroke-width:0.5;stroke-dasharray:5.0,5.0;" x1="783.2969" x2="783.2969" y1="81.2969" y2="580.4219"/><line style="stroke:#181818;stroke-width:0.5;stroke-dasharray:5.0,5.0;" x1="899.5723" x2="899.5723" y1="81.2969" y2="580.4219"/><text fill="#000000" font-family="sans-serif" font-size="14" lengthAdjust="spacing" textLength="49.1436" x="5" y="77.9951">Cliente</text><ellipse cx="32.5718" cy="13.5" fill="#E2E2F0" rx="8" ry="8" style="stroke:#181818;stroke-width:0.5;"/><path d="M32.5718,21.5 L32.5718,48.5 M19.5718,29.5 L45.5718,29.5 M32.5718,48.5 L19.5718,63.5 M32.5718,48.5 L45.5718,63.5 " fill="none" style="stroke:#181818;stroke-width:0.5;"/><text fill="#000000" font-family="sans-serif" font-size="14" lengthAdjust="spacing" textLength="49.1436" x="5" y="592.417">Cliente</text><ellipse cx="32.5718" cy="604.2188" fill="#E2E2F0" rx="8" ry="8" style="stroke:#181818;stroke-width:0.5;"/><path d="M32.5718,612.2188 L32.5718,639.2188 M19.5718,620.2188 L45.5718,620.2188 M32.5718,639.2188 L19.5718,654.2188 M32.5718,639.2188 L45.5718,654.2188 " fill="none" style="stroke:#181818;stroke-width:0.5;"/><text fill="#000000" font-family="sans-serif" font-size="14" lengthAdjust="spacing" textLength="82.6738" x="169.6958" y="77.9951">ClienteView</text><path d="M193.5327,37 L193.5327,61 M193.5327,49 L210.5327,49 " fill="none" style="stroke:#181818;stroke-width:0.5;"/><ellipse cx="222.5327" cy="49" fill="#E2E2F0" rx="12" ry="12" style="stroke:#181818;stroke-width:0.5;"/><text fill="#000000" font-family="sans-serif" font-size="14" lengthAdjust="spacing" textLength="82.6738" x="169.6958" y="592.417">ClienteView</text><path d="M193.5327,599.7188 L193.5327,623.7188 M193.5327,611.7188 L210.5327,611.7188 " fill="none" style="stroke:#181818;stroke-width:0.5;"/><ellipse cx="222.5327" cy="611.7188" fill="#E2E2F0" rx="12" ry="12" style="stroke:#181818;stroke-width:0.5;"/><text fill="#000000" font-family="sans-serif" font-size="14" lengthAdjust="spacing" textLength="118.3164" x="408.6187" y="77.9951">ClienteController</text><ellipse cx="470.7769" cy="49" fill="#E2E2F0" rx="12" ry="12" style="stroke:#181818;stroke-width:0.5;"/><polygon fill="#181818" points="466.7769,37,472.7769,32,470.7769,37,472.7769,42,466.7769,37" style="stroke:#181818;stroke-width:1;"/><text fill="#000000" font-family="sans-serif" font-size="14" lengthAdjust="spacing" textLength="118.3164" x="408.6187" y="592.417">ClienteController</text><ellipse cx="470.7769" cy="611.7188" fill="#E2E2F0" rx="12" ry="12" style="stroke:#181818;stroke-width:0.5;"/><polygon fill="#181818" points="466.7769,599.7188,472.7769,594.7188,470.7769,599.7188,472.7769,604.7188,466.7769,599.7188" style="stroke:#181818;stroke-width:1;"/><text fill="#000000" font-family="sans-serif" font-size="14" lengthAdjust="spacing" textLength="47.2842" x="686.0127" y="77.9951">Pedido</text><ellipse cx="712.6548" cy="49" fill="#E2E2F0" rx="12" ry="12" style="stroke:#181818;stroke-width:0.5;"/><line style="stroke:#181818;stroke-width:0.5;" x1="700.6548" x2="724.6548" y1="63" y2="63"/><text fill="#000000" font-family="sans-serif" font-size="14" lengthAdjust="spacing" textLength="47.2842" x="686.0127" y="592.417">Pedido</text><ellipse cx="712.6548" cy="611.7188" fill="#E2E2F0" rx="12" ry="12" style="stroke:#181818;stroke-width:0.5;"/><line style="stroke:#181818;stroke-width:0.5;" x1="700.6548" x2="724.6548" y1="625.7188" y2="625.7188"/><text fill="#000000" font-family="sans-serif" font-size="14" lengthAdjust="spacing" textLength="62.2754" x="749.2969" y="77.9951">Producto</text><ellipse cx="783.4346" cy="49" fill="#E2E2F0" rx="12" ry="12" style="stroke:#181818;stroke-width:0.5;"/><line style="stroke:#181818;stroke-width:0.5;" x1="771.4346" x2="795.4346" y1="63" y2="63"/><text fill="#000000" font-family="sans-serif" font-size="14" lengthAdjust="spacing" textLength="62.2754" x="749.2969" y="592.417">Producto</text><ellipse cx="783.4346" cy="611.7188" fill="#E2E2F0" rx="12" ry="12" style="stroke:#181818;stroke-width:0.5;"/><line style="stroke:#181818;stroke-width:0.5;" x1="771.4346" x2="795.4346" y1="625.7188" y2="625.7188"/><text fill="#000000" font-family="sans-serif" font-size="14" lengthAdjust="spacing" textLength="139.0771" x="827.5723" y="77.9951">EmpleadoController</text><ellipse cx="900.1108" cy="49" fill="#E2E2F0" rx="12" ry="12" style="stroke:#181818;stroke-width:0.5;"/><line style="stroke:#181818;stroke-width:0.5;" x1="888.1108" x2="912.1108" y1="63" y2="63"/><text fill="#000000" font-family="sans-serif" font-size="14" lengthAdjust="spacing" textLength="139.0771" x="827.5723" y="592.417">EmpleadoController</text><ellipse cx="900.1108" cy="611.7188" fill="#E2E2F0" rx="12" ry="12" style="stroke:#181818;stroke-width:0.5;"/><line style="stroke:#181818;stroke-width:0.5;" x1="888.1108" x2="912.1108" y1="625.7188" y2="625.7188"/><polygon fill="#181818" points="202.0327,108.4297,212.0327,112.4297,202.0327,116.4297,206.0327,112.4297" style="stroke:#181818;stroke-width:1;"/><line style="stroke:#181818;stroke-width:1;" x1="32.5718" x2="208.0327" y1="112.4297" y2="112.4297"/><text fill="#000000" font-family="sans-serif" font-size="13" font-weight="bold" lengthAdjust="spacing" textLength="9.0454" x="39.5718" y="107.3638">1</text><text fill="#000000" font-family="sans-serif" font-size="13" lengthAdjust="spacing" textLength="63.5083" x="52.6172" y="107.3638">Ver men&#250;</text><polygon fill="#181818" points="458.7769,137.5625,468.7769,141.5625,458.7769,145.5625,462.7769,141.5625" style="stroke:#181818;stroke-width:1;"/><line style="stroke:#181818;stroke-width:1;" x1="214.0327" x2="464.7769" y1="141.5625" y2="141.5625"/><text fill="#000000" font-family="sans-serif" font-size="13" font-weight="bold" lengthAdjust="spacing" textLength="9.0454" x="221.0327" y="136.4966">2</text><text fill="#000000" font-family="sans-serif" font-size="13" lengthAdjust="spacing" textLength="96.7192" x="234.0781" y="136.4966">obtenerMenu()</text><polygon fill="#181818" points="771.4346,166.6953,781.4346,170.6953,771.4346,174.6953,775.4346,170.6953" style="stroke:#181818;stroke-width:1;"/><line style="stroke:#181818;stroke-width:1;" x1="470.7769" x2="777.4346" y1="170.6953" y2="170.6953"/><text fill="#000000" font-family="sans-serif" font-size="13" font-weight="bold" lengthAdjust="spacing" textLength="9.0454" x="477.7769" y="165.6294">3</text><text fill="#000000" font-family="sans-serif" font-size="13" lengthAdjust="spacing" textLength="135.1162" x="490.8223" y="165.6294">consultarProductos()</text><polygon fill="#181818" points="481.7769,195.8281,471.7769,199.8281,481.7769,203.8281,477.7769,199.8281" style="stroke:#181818;stroke-width:1;"/><line style="stroke:#181818;stroke-width:1;stroke-dasharray:2.0,2.0;" x1="475.7769" x2="782.4346" y1="199.8281" y2="199.8281"/><text fill="#000000" font-family="sans-serif" font-size="13" font-weight="bold" lengthAdjust="spacing" textLength="9.0454" x="487.7769" y="194.7622">4</text><text fill="#000000" font-family="sans-serif" font-size="13" lengthAdjust="spacing" textLength="102.3369" x="500.8223" y="194.7622">List&lt;Producto&gt;</text><polygon fill="#181818" points="225.0327,224.9609,215.0327,228.9609,225.0327,232.9609,221.0327,228.9609" style="stroke:#181818;stroke-width:1;"/><line style="stroke:#181818;stroke-width:1;stroke-dasharray:2.0,2.0;" x1="219.0327" x2="469.7769" y1="228.9609" y2="228.9609"/><text fill="#000000" font-family="sans-serif" font-size="13" font-weight="bold" lengthAdjust="spacing" textLength="9.0454" x="231.0327" y="223.895">5</text><text fill="#000000" font-family="sans-serif" font-size="13" lengthAdjust="spacing" textLength="102.3369" x="244.0781" y="223.895">List&lt;Producto&gt;</text><polygon fill="#181818" points="202.0327,254.0938,212.0327,258.0938,202.0327,262.0938,206.0327,258.0938" style="stroke:#181818;stroke-width:1;"/><line style="stroke:#181818;stroke-width:1;" x1="32.5718" x2="208.0327" y1="258.0938" y2="258.0938"/><text fill="#000000" font-family="sans-serif" font-size="13" font-weight="bold" lengthAdjust="spacing" textLength="9.0454" x="39.5718" y="253.0278">6</text><text fill="#000000" font-family="sans-serif" font-size="13" lengthAdjust="spacing" textLength="144.4155" x="52.6172" y="253.0278">Seleccionar productos</text><polygon fill="#181818" points="202.0327,283.2266,212.0327,287.2266,202.0327,291.2266,206.0327,287.2266" style="stroke:#181818;stroke-width:1;"/><line style="stroke:#181818;stroke-width:1;" x1="32.5718" x2="208.0327" y1="287.2266" y2="287.2266"/><text fill="#000000" font-family="sans-serif" font-size="13" font-weight="bold" lengthAdjust="spacing" textLength="9.0454" x="39.5718" y="282.1606">7</text><text fill="#000000" font-family="sans-serif" font-size="13" lengthAdjust="spacing" textLength="113.2295" x="52.6172" y="282.1606">Confirmar pedido</text><polygon fill="#181818" points="458.7769,312.3594,468.7769,316.3594,458.7769,320.3594,462.7769,316.3594" style="stroke:#181818;stroke-width:1;"/><line style="stroke:#181818;stroke-width:1;" x1="214.0327" x2="464.7769" y1="316.3594" y2="316.3594"/><text fill="#000000" font-family="sans-serif" font-size="13" font-weight="bold" lengthAdjust="spacing" textLength="9.0454" x="221.0327" y="311.2935">8</text><text fill="#000000" font-family="sans-serif" font-size="13" lengthAdjust="spacing" textLength="219.6987" x="234.0781" y="311.2935">realizarPedido(cliente, productos)</text><polygon fill="#181818" points="700.6548,341.4922,710.6548,345.4922,700.6548,349.4922,704.6548,345.4922" style="stroke:#181818;stroke-width:1;"/><line style="stroke:#181818;stroke-width:1;" x1="470.7769" x2="706.6548" y1="345.4922" y2="345.4922"/><text fill="#000000" font-family="sans-serif" font-size="13" font-weight="bold" lengthAdjust="spacing" textLength="9.0454" x="477.7769" y="340.4263">9</text><text fill="#000000" font-family="sans-serif" font-size="13" lengthAdjust="spacing" textLength="204.8325" x="490.8223" y="340.4263">crearPedido(cliente, productos)</text><polygon fill="#181818" points="481.7769,370.625,471.7769,374.625,481.7769,378.625,477.7769,374.625" style="stroke:#181818;stroke-width:1;"/><line style="stroke:#181818;stroke-width:1;stroke-dasharray:2.0,2.0;" x1="475.7769" x2="711.6548" y1="374.625" y2="374.625"/><text fill="#000000" font-family="sans-serif" font-size="13" font-weight="bold" lengthAdjust="spacing" textLength="18.0908" x="487.7769" y="369.5591">10</text><text fill="#000000" font-family="sans-serif" font-size="13" lengthAdjust="spacing" textLength="43.9067" x="509.8677" y="369.5591">Pedido</text><polygon fill="#181818" points="225.0327,399.7578,215.0327,403.7578,225.0327,407.7578,221.0327,403.7578" style="stroke:#181818;stroke-width:1;"/><line style="stroke:#181818;stroke-width:1;stroke-dasharray:2.0,2.0;" x1="219.0327" x2="469.7769" y1="403.7578" y2="403.7578"/><text fill="#000000" font-family="sans-serif" font-size="13" font-weight="bold" lengthAdjust="spacing" textLength="18.0908" x="231.0327" y="398.6919">11</text><text fill="#000000" font-family="sans-serif" font-size="13" lengthAdjust="spacing" textLength="121.748" x="253.1235" y="398.6919">Pedido confirmado</text><polygon fill="#181818" points="202.0327,428.8906,212.0327,432.8906,202.0327,436.8906,206.0327,432.8906" style="stroke:#181818;stroke-width:1;"/><line style="stroke:#181818;stroke-width:1;" x1="32.5718" x2="208.0327" y1="432.8906" y2="432.8906"/><text fill="#000000" font-family="sans-serif" font-size="13" font-weight="bold" lengthAdjust="spacing" textLength="18.0908" x="39.5718" y="427.8247">12</text><text fill="#000000" font-family="sans-serif" font-size="13" lengthAdjust="spacing" textLength="128.54" x="61.6626" y="427.8247">Ver total del pedido</text><polygon fill="#181818" points="700.6548,458.0234,710.6548,462.0234,700.6548,466.0234,704.6548,462.0234" style="stroke:#181818;stroke-width:1;"/><line style="stroke:#181818;stroke-width:1;" x1="214.0327" x2="706.6548" y1="462.0234" y2="462.0234"/><text fill="#000000" font-family="sans-serif" font-size="13" font-weight="bold" lengthAdjust="spacing" textLength="18.0908" x="221.0327" y="456.9575">13</text><text fill="#000000" font-family="sans-serif" font-size="13" lengthAdjust="spacing" textLength="93.5962" x="243.1235" y="456.9575">obtenerTotal()</text><polygon fill="#181818" points="225.0327,487.1563,215.0327,491.1563,225.0327,495.1563,221.0327,491.1563" style="stroke:#181818;stroke-width:1;"/><line style="stroke:#181818;stroke-width:1;stroke-dasharray:2.0,2.0;" x1="219.0327" x2="711.6548" y1="491.1563" y2="491.1563"/><text fill="#000000" font-family="sans-serif" font-size="13" font-weight="bold" lengthAdjust="spacing" textLength="18.0908" x="231.0327" y="486.0903">14</text><text fill="#000000" font-family="sans-serif" font-size="13" lengthAdjust="spacing" textLength="29.7261" x="253.1235" y="486.0903">total</text><polygon fill="#181818" points="888.1108,516.2891,898.1108,520.2891,888.1108,524.2891,892.1108,520.2891" style="stroke:#181818;stroke-width:1;"/><line style="stroke:#181818;stroke-width:1;" x1="470.7769" x2="894.1108" y1="520.2891" y2="520.2891"/><text fill="#000000" font-family="sans-serif" font-size="13" font-weight="bold" lengthAdjust="spacing" textLength="18.0908" x="477.7769" y="515.2231">15</text><text fill="#000000" font-family="sans-serif" font-size="13" lengthAdjust="spacing" textLength="151.9185" x="499.8677" y="515.2231">notificarPedido(pedido)</text><line style="stroke:#181818;stroke-width:1;stroke-dasharray:2.0,2.0;" x1="900.1108" x2="942.1108" y1="549.4219" y2="549.4219"/><line style="stroke:#181818;stroke-width:1;stroke-dasharray:2.0,2.0;" x1="942.1108" x2="942.1108" y1="549.4219" y2="562.4219"/><line style="stroke:#181818;stroke-width:1;stroke-dasharray:2.0,2.0;" x1="901.1108" x2="942.1108" y1="562.4219" y2="562.4219"/><polygon fill="#181818" points="911.1108,558.4219,901.1108,562.4219,911.1108,566.4219,907.1108,562.4219" style="stroke:#181818;stroke-width:1;"/><text fill="#000000" font-family="sans-serif" font-size="13" font-weight="bold" lengthAdjust="spacing" textLength="18.0908" x="907.1108" y="544.356">16</text><text fill="#000000" font-family="sans-serif" font-size="13" lengthAdjust="spacing" textLength="214.7666" x="929.2017" y="544.356">agregarPedidoPendiente(pedido)</text><!--SRC=[XL9BQiCm4Dth5BDqeBc0ATc4xbemj6GlIvCWa3LXB57IesMRYrMshCIDFzrvnkyt3ydWoOMcHXP2AayCUslGUHGr1QSbN_BYOF1RA7AUoURTFeqsikDe_0Kgr4RJVMBI8Qhc-QqvMvIQHZmnIC5sDtOguO0C3RhRLOpM8zH3emIgFJha3tIXs8W9e6FbA2N46zfWlUIyQYCdVyDstk7TjFurWtPp5i_vdnYBTtwYHQKCESbmpeaMqT7nQBZfiAdf_yjXbDRyn7DxGg4IukLXjjHOZuzzHO4rSlgrL5pr9-PQOOEE6YwCfDMtuSbB2nhjGXCv_l0slZfuCPSsIVPoOhw9wRCjmP4tHwFkpQGG6p75zbvp4lB4UCe25JhTMsUbNm00]--></g></svg>