<svg xmlns="http://www.w3.org/2000/svg" xmlns:xlink="http://www.w3.org/1999/xlink" contentStyleType="text/css" height="684px" preserveAspectRatio="none" style="width:423px;height:684px;background:#FFFFFF;" version="1.1" viewBox="0 0 423 684" width="423px" zoomAndPan="magnify"><defs/><g><!--entity Cliente--><g id="elem_Cliente"><ellipse cx="55.5418" cy="541.81" fill="#F1F1F1" rx="8" ry="8" style="stroke:#181818;stroke-width:0.5;"/><path d="M55.5418,549.81 L55.5418,576.81 M42.5418,557.81 L68.5418,557.81 M55.5418,576.81 L42.5418,591.81 M55.5418,576.81 L68.5418,591.81 " fill="none" style="stroke:#181818;stroke-width:0.5;"/><text fill="#000000" font-family="sans-serif" font-size="14" lengthAdjust="spacing" textLength="49.1436" x="30.97" y="606.3051">Cliente</text></g><!--entity Empleado--><g id="elem_Empleado"><ellipse cx="55.5421" cy="309.81" fill="#F1F1F1" rx="8" ry="8" style="stroke:#181818;stroke-width:0.5;"/><path d="M55.5421,317.81 L55.5421,344.81 M42.5421,325.81 L68.5421,325.81 M55.5421,344.81 L42.5421,359.81 M55.5421,344.81 L68.5421,359.81 " fill="none" style="stroke:#181818;stroke-width:0.5;"/><text fill="#000000" font-family="sans-serif" font-size="14" lengthAdjust="spacing" textLength="69.9043" x="20.59" y="374.3051">Empleado</text></g><!--entity Administrador--><g id="elem_Administrador"><ellipse cx="55.54" cy="70.81" fill="#F1F1F1" rx="8" ry="8" style="stroke:#181818;stroke-width:0.5;"/><path d="M55.54,78.81 L55.54,105.81 M42.54,86.81 L68.54,86.81 M55.54,105.81 L42.54,120.81 M55.54,105.81 L68.54,120.81 " fill="none" style="stroke:#181818;stroke-width:0.5;"/><text fill="#000000" font-family="sans-serif" font-size="14" lengthAdjust="spacing" textLength="99.0801" x="6" y="135.3051">Administrador</text></g><g id="elem_UC1"><ellipse cx="291.1469" cy="504.4591" fill="#F1F1F1" rx="61.1069" ry="14.7791" style="stroke:#181818;stroke-width:0.5;"/><text fill="#000000" font-family="sans-serif" font-size="14" lengthAdjust="spacing" textLength="68.3936" x="253.9501" y="508.2066">Ver men&#250;</text></g><g id="elem_UC2"><ellipse cx="291.1455" cy="571.4591" fill="#F1F1F1" rx="75.9955" ry="17.5991" style="stroke:#181818;stroke-width:0.5;"/><text fill="#000000" font-family="sans-serif" font-size="14" lengthAdjust="spacing" textLength="108.5615" x="233.8647" y="575.2067">Realizar pedido</text></g><g id="elem_UC3"><ellipse cx="291.1474" cy="651.4615" fill="#F1F1F1" rx="125.2574" ry="27.4515" style="stroke:#181818;stroke-width:0.5;"/><text fill="#000000" font-family="sans-serif" font-size="14" lengthAdjust="spacing" textLength="218.5381" x="181.8784" y="654.3082">Proporcionar retroalimentaci&#243;n</text></g><g id="elem_UC4"><ellipse cx="291.1489" cy="259.4558" fill="#F1F1F1" rx="83.7289" ry="19.1458" style="stroke:#181818;stroke-width:0.5;"/><text fill="#000000" font-family="sans-serif" font-size="14" lengthAdjust="spacing" textLength="127.3809" x="227.1094" y="262.4219">Gestionar pedidos</text></g><g id="elem_UC5"><ellipse cx="291.1453" cy="339.4571" fill="#F1F1F1" rx="116.7353" ry="25.7471" style="stroke:#181818;stroke-width:0.5;"/><text fill="#000000" font-family="sans-serif" font-size="14" lengthAdjust="spacing" textLength="200.375" x="190.9578" y="342.3037">Marcar pedido como pagado</text></g><g id="elem_UC6"><ellipse cx="291.1466" cy="427.4633" fill="#F1F1F1" rx="126.0666" ry="27.6133" style="stroke:#181818;stroke-width:0.5;"/><text fill="#000000" font-family="sans-serif" font-size="14" lengthAdjust="spacing" textLength="220.2539" x="181.0197" y="430.31">Marcar pedido como entregado</text></g><g id="elem_UC7"><ellipse cx="291.1489" cy="26.4558" fill="#F1F1F1" rx="90.2789" ry="20.4558" style="stroke:#181818;stroke-width:0.5;"/><text fill="#000000" font-family="sans-serif" font-size="14" lengthAdjust="spacing" textLength="142.3721" x="219.9629" y="29.3025">Gestionar productos</text></g><g id="elem_UC8"><ellipse cx="291.1532" cy="100.4606" fill="#F1F1F1" rx="80.8032" ry="18.5606" style="stroke:#181818;stroke-width:0.5;"/><text fill="#000000" font-family="sans-serif" font-size="14" lengthAdjust="spacing" textLength="120.4629" x="229.5544" y="103.7519">Generar reportes</text></g><g id="elem_UC9"><ellipse cx="291.1515" cy="179.4563" fill="#F1F1F1" rx="115.2815" ry="25.4563" style="stroke:#181818;stroke-width:0.5;"/><text fill="#000000" font-family="sans-serif" font-size="14" lengthAdjust="spacing" textLength="197.2578" x="192.5226" y="182.303">Revisar retroalimentaciones</text></g><!--link Cliente to UC1--><g id="link_Cliente_UC1"><path d="M80.55,563.25 C102.46,555.87 135.79,544.92 165.08,536.46 C192,528.68 216.6152,522.3093 240.7352,516.3493 " fill="none" id="Cliente-to-UC1" style="stroke:#181818;stroke-width:1;"/><polygon fill="#181818" points="246.56,514.91,236.8633,513.1857,241.706,516.1094,238.7823,520.9522,246.56,514.91" style="stroke:#181818;stroke-width:1;"/></g><!--link Cliente to UC2--><g id="link_Cliente_UC2"><path d="M80.23,571.46 C111.54,571.46 162.21,571.46 208.78,571.46 " fill="none" id="Cliente-to-UC2" style="stroke:#181818;stroke-width:1;"/><polygon fill="#181818" points="214.78,571.46,205.78,567.46,209.78,571.46,205.78,575.46,214.78,571.46" style="stroke:#181818;stroke-width:1;"/></g><!--link Cliente to UC3--><g id="link_Cliente_UC3"><path d="M80.23,579.57 C113.23,590.87 168.6938,609.8657 216.5138,626.2457 " fill="none" id="Cliente-to-UC3" style="stroke:#181818;stroke-width:1;"/><polygon fill="#181818" points="222.19,628.19,214.9718,621.4894,217.4598,626.5697,212.3794,629.0577,222.19,628.19" style="stroke:#181818;stroke-width:1;"/></g><!--link Empleado to UC4--><g id="link_Empleado_UC4"><path d="M90.95,324.91 C112.15,316.18 139.98,305.12 165.08,296.46 C188.2,288.48 208.3045,282.311 230.4845,275.921 " fill="none" id="Empleado-to-UC4" style="stroke:#181818;stroke-width:1;"/><polygon fill="#181818" points="236.25,274.26,226.4944,272.9079,231.4454,275.6442,228.7091,280.5952,236.25,274.26" style="stroke:#181818;stroke-width:1;"/></g><!--link Empleado to UC5--><g id="link_Empleado_UC5"><path d="M90.51,339.46 C112.84,339.46 137.5,339.46 168.1,339.46 " fill="none" id="Empleado-to-UC5" style="stroke:#181818;stroke-width:1;"/><polygon fill="#181818" points="174.1,339.46,165.1,335.46,169.1,339.46,165.1,343.46,174.1,339.46" style="stroke:#181818;stroke-width:1;"/></g><!--link Empleado to UC6--><g id="link_Empleado_UC6"><path d="M90.65,353.29 C111.98,361.86 140.05,373 165.08,382.46 C183.86,389.55 198.6738,395 217.5038,401.77 " fill="none" id="Empleado-to-UC6" style="stroke:#181818;stroke-width:1;"/><polygon fill="#181818" points="223.15,403.8,216.0341,396.9909,218.4449,402.1083,213.3274,404.5191,223.15,403.8" style="stroke:#181818;stroke-width:1;"/></g><!--link Administrador to UC7--><g id="link_Administrador_UC7"><path d="M105.35,83.98 C124.01,77.76 145.5,70.68 165.08,64.46 C187.9,57.21 207.406,51.2138 229.206,44.6338 " fill="none" id="Administrador-to-UC7" style="stroke:#181818;stroke-width:1;"/><polygon fill="#181818" points="234.95,42.9,225.1781,41.6713,230.1633,44.3448,227.4898,49.33,234.95,42.9" style="stroke:#181818;stroke-width:1;"/></g><!--link Administrador to UC8--><g id="link_Administrador_UC8"><path d="M105.51,100.46 C135.75,100.46 169.27,100.46 203.98,100.46 " fill="none" id="Administrador-to-UC8" style="stroke:#181818;stroke-width:1;"/><polygon fill="#181818" points="209.98,100.46,200.98,96.46,204.98,100.46,200.98,104.46,209.98,100.46" style="stroke:#181818;stroke-width:1;"/></g><!--link Administrador to UC9--><g id="link_Administrador_UC9"><path d="M105.51,117.02 C140.7,128.92 182.766,143.1485 220.896,156.0385 " fill="none" id="Administrador-to-UC9" style="stroke:#181818;stroke-width:1;"/><polygon fill="#181818" points="226.58,157.96,219.335,151.2884,221.8433,156.3588,216.773,158.8671,226.58,157.96" style="stroke:#181818;stroke-width:1;"/></g><!--SRC=[VP6_JWCn3CRtF8NLlGFztmK9LHKJ4aA2tKfCiNGNdnoNWTTYO-sB4RMvk_OuCNvVVlONsnMz6vY0yk738B2IDvReq9iex2gcQ5JKlcugmY15FeIQ8oVJRAbpnqGU4y7aZHHgYgUV2M22rzrT__H2MF4NAZGKE4W1PZtmhDA8-lo332cPIYx8pGmzdxvZAPZt1O-Kx49VMgQ2B7ha2TLtx-2b5cZmW5tyybyqPojTqQlHR9Lmp4jfqzVNK2Gz3vC7Csg9pVLIFZdz7LTY1s-TAvU0wVJ-lD9RFHlekNFjiOgp61hBeR5oxkQYnLwFkfjHT_iB]--></g></svg>