<svg xmlns="http://www.w3.org/2000/svg" xmlns:xlink="http://www.w3.org/1999/xlink" contentStyleType="text/css" height="589px" preserveAspectRatio="none" style="width:905px;height:589px;background:#FFFFFF;" version="1.1" viewBox="0 0 905 589" width="905px" zoomAndPan="magnify"><defs/><g><line style="stroke:#181818;stroke-width:0.5;stroke-dasharray:5.0,5.0;" x1="42" x2="42" y1="81.2969" y2="509.1563"/><line style="stroke:#181818;stroke-width:0.5;stroke-dasharray:5.0,5.0;" x1="298.4141" x2="298.4141" y1="81.2969" y2="509.1563"/><line style="stroke:#181818;stroke-width:0.5;stroke-dasharray:5.0,5.0;" x1="568.8892" x2="568.8892" y1="81.2969" y2="509.1563"/><line style="stroke:#181818;stroke-width:0.5;stroke-dasharray:5.0,5.0;" x1="876.9966" x2="876.9966" y1="81.2969" y2="509.1563"/><text fill="#000000" font-family="sans-serif" font-size="14" lengthAdjust="spacing" textLength="69.9043" x="5" y="77.9951">Empleado</text><ellipse cx="42.9521" cy="13.5" fill="#E2E2F0" rx="8" ry="8" style="stroke:#181818;stroke-width:0.5;"/><path d="M42.9521,21.5 L42.9521,48.5 M29.9521,29.5 L55.9521,29.5 M42.9521,48.5 L29.9521,63.5 M42.9521,48.5 L55.9521,63.5 " fill="none" style="stroke:#181818;stroke-width:0.5;"/><text fill="#000000" font-family="sans-serif" font-size="14" lengthAdjust="spacing" textLength="69.9043" x="5" y="521.1514">Empleado</text><ellipse cx="42.9521" cy="532.9531" fill="#E2E2F0" rx="8" ry="8" style="stroke:#181818;stroke-width:0.5;"/><path d="M42.9521,540.9531 L42.9521,567.9531 M29.9521,548.9531 L55.9521,548.9531 M42.9521,567.9531 L29.9521,582.9531 M42.9521,567.9531 L55.9521,582.9531 " fill="none" style="stroke:#181818;stroke-width:0.5;"/><text fill="#000000" font-family="sans-serif" font-size="14" lengthAdjust="spacing" textLength="103.4346" x="244.4141" y="77.9951">EmpleadoView</text><path d="M278.6313,37 L278.6313,61 M278.6313,49 L295.6313,49 " fill="none" style="stroke:#181818;stroke-width:0.5;"/><ellipse cx="307.6313" cy="49" fill="#E2E2F0" rx="12" ry="12" style="stroke:#181818;stroke-width:0.5;"/><text fill="#000000" font-family="sans-serif" font-size="14" lengthAdjust="spacing" textLength="103.4346" x="244.4141" y="521.1514">EmpleadoView</text><path d="M278.6313,528.4531 L278.6313,552.4531 M278.6313,540.4531 L295.6313,540.4531 " fill="none" style="stroke:#181818;stroke-width:0.5;"/><ellipse cx="307.6313" cy="540.4531" fill="#E2E2F0" rx="12" ry="12" style="stroke:#181818;stroke-width:0.5;"/><text fill="#000000" font-family="sans-serif" font-size="14" lengthAdjust="spacing" textLength="139.0771" x="496.8892" y="77.9951">EmpleadoController</text><ellipse cx="569.4277" cy="49" fill="#E2E2F0" rx="12" ry="12" style="stroke:#181818;stroke-width:0.5;"/><polygon fill="#181818" points="565.4277,37,571.4277,32,569.4277,37,571.4277,42,565.4277,37" style="stroke:#181818;stroke-width:1;"/><text fill="#000000" font-family="sans-serif" font-size="14" lengthAdjust="spacing" textLength="139.0771" x="496.8892" y="521.1514">EmpleadoController</text><ellipse cx="569.4277" cy="540.4531" fill="#E2E2F0" rx="12" ry="12" style="stroke:#181818;stroke-width:0.5;"/><polygon fill="#181818" points="565.4277,528.4531,571.4277,523.4531,569.4277,528.4531,571.4277,533.4531,565.4277,528.4531" style="stroke:#181818;stroke-width:1;"/><text fill="#000000" font-family="sans-serif" font-size="14" lengthAdjust="spacing" textLength="47.2842" x="850.9966" y="77.9951">Pedido</text><ellipse cx="877.6387" cy="49" fill="#E2E2F0" rx="12" ry="12" style="stroke:#181818;stroke-width:0.5;"/><line style="stroke:#181818;stroke-width:0.5;" x1="865.6387" x2="889.6387" y1="63" y2="63"/><text fill="#000000" font-family="sans-serif" font-size="14" lengthAdjust="spacing" textLength="47.2842" x="850.9966" y="521.1514">Pedido</text><ellipse cx="877.6387" cy="540.4531" fill="#E2E2F0" rx="12" ry="12" style="stroke:#181818;stroke-width:0.5;"/><line style="stroke:#181818;stroke-width:0.5;" x1="865.6387" x2="889.6387" y1="554.4531" y2="554.4531"/><polygon fill="#181818" points="287.1313,108.4297,297.1313,112.4297,287.1313,116.4297,291.1313,112.4297" style="stroke:#181818;stroke-width:1;"/><line style="stroke:#181818;stroke-width:1;" x1="42.9521" x2="293.1313" y1="112.4297" y2="112.4297"/><text fill="#000000" font-family="sans-serif" font-size="13" font-weight="bold" lengthAdjust="spacing" textLength="9.0454" x="49.9521" y="107.3638">1</text><text fill="#000000" font-family="sans-serif" font-size="13" lengthAdjust="spacing" textLength="154.0513" x="62.9976" y="107.3638">Ver pedidos pendientes</text><polygon fill="#181818" points="557.4277,137.5625,567.4277,141.5625,557.4277,145.5625,561.4277,141.5625" style="stroke:#181818;stroke-width:1;"/><line style="stroke:#181818;stroke-width:1;" x1="299.1313" x2="563.4277" y1="141.5625" y2="141.5625"/><text fill="#000000" font-family="sans-serif" font-size="13" font-weight="bold" lengthAdjust="spacing" textLength="9.0454" x="306.1313" y="136.4966">2</text><text fill="#000000" font-family="sans-serif" font-size="13" lengthAdjust="spacing" textLength="183.752" x="319.1768" y="136.4966">obtenerPedidosPendientes()</text><polygon fill="#181818" points="865.6387,166.6953,875.6387,170.6953,865.6387,174.6953,869.6387,170.6953" style="stroke:#181818;stroke-width:1;"/><line style="stroke:#181818;stroke-width:1;" x1="569.4277" x2="871.6387" y1="170.6953" y2="170.6953"/><text fill="#000000" font-family="sans-serif" font-size="13" font-weight="bold" lengthAdjust="spacing" textLength="9.0454" x="576.4277" y="165.6294">3</text><text fill="#000000" font-family="sans-serif" font-size="13" lengthAdjust="spacing" textLength="193.2417" x="589.4731" y="165.6294">consultarPedidosPendientes()</text><polygon fill="#181818" points="580.4277,195.8281,570.4277,199.8281,580.4277,203.8281,576.4277,199.8281" style="stroke:#181818;stroke-width:1;"/><line style="stroke:#181818;stroke-width:1;stroke-dasharray:2.0,2.0;" x1="574.4277" x2="876.6387" y1="199.8281" y2="199.8281"/><text fill="#000000" font-family="sans-serif" font-size="13" font-weight="bold" lengthAdjust="spacing" textLength="9.0454" x="586.4277" y="194.7622">4</text><text fill="#000000" font-family="sans-serif" font-size="13" lengthAdjust="spacing" textLength="88.4165" x="599.4731" y="194.7622">List&lt;Pedido&gt;</text><polygon fill="#181818" points="310.1313,224.9609,300.1313,228.9609,310.1313,232.9609,306.1313,228.9609" style="stroke:#181818;stroke-width:1;"/><line style="stroke:#181818;stroke-width:1;stroke-dasharray:2.0,2.0;" x1="304.1313" x2="568.4277" y1="228.9609" y2="228.9609"/><text fill="#000000" font-family="sans-serif" font-size="13" font-weight="bold" lengthAdjust="spacing" textLength="9.0454" x="316.1313" y="223.895">5</text><text fill="#000000" font-family="sans-serif" font-size="13" lengthAdjust="spacing" textLength="88.4165" x="329.1768" y="223.895">List&lt;Pedido&gt;</text><polygon fill="#181818" points="287.1313,254.0938,297.1313,258.0938,287.1313,262.0938,291.1313,258.0938" style="stroke:#181818;stroke-width:1;"/><line style="stroke:#181818;stroke-width:1;" x1="42.9521" x2="293.1313" y1="258.0938" y2="258.0938"/><text fill="#000000" font-family="sans-serif" font-size="13" font-weight="bold" lengthAdjust="spacing" textLength="9.0454" x="49.9521" y="253.0278">6</text><text fill="#000000" font-family="sans-serif" font-size="13" lengthAdjust="spacing" textLength="123.7222" x="62.9976" y="253.0278">Seleccionar pedido</text><polygon fill="#181818" points="557.4277,283.2266,567.4277,287.2266,557.4277,291.2266,561.4277,287.2266" style="stroke:#181818;stroke-width:1;"/><line style="stroke:#181818;stroke-width:1;" x1="299.1313" x2="563.4277" y1="287.2266" y2="287.2266"/><text fill="#000000" font-family="sans-serif" font-size="13" font-weight="bold" lengthAdjust="spacing" textLength="9.0454" x="306.1313" y="282.1606">7</text><text fill="#000000" font-family="sans-serif" font-size="13" lengthAdjust="spacing" textLength="205.1182" x="319.1768" y="282.1606">marcarPedidoPagado(pedidoId)</text><polygon fill="#181818" points="865.6387,312.3594,875.6387,316.3594,865.6387,320.3594,869.6387,316.3594" style="stroke:#181818;stroke-width:1;"/><line style="stroke:#181818;stroke-width:1;" x1="569.4277" x2="871.6387" y1="316.3594" y2="316.3594"/><text fill="#000000" font-family="sans-serif" font-size="13" font-weight="bold" lengthAdjust="spacing" textLength="9.0454" x="576.4277" y="311.2935">8</text><text fill="#000000" font-family="sans-serif" font-size="13" lengthAdjust="spacing" textLength="243.0327" x="589.4731" y="311.2935">actualizarEstado(pedidoId, "Pagado")</text><polygon fill="#181818" points="580.4277,341.4922,570.4277,345.4922,580.4277,349.4922,576.4277,345.4922" style="stroke:#181818;stroke-width:1;"/><line style="stroke:#181818;stroke-width:1;stroke-dasharray:2.0,2.0;" x1="574.4277" x2="876.6387" y1="345.4922" y2="345.4922"/><text fill="#000000" font-family="sans-serif" font-size="13" font-weight="bold" lengthAdjust="spacing" textLength="9.0454" x="586.4277" y="340.4263">9</text><text fill="#000000" font-family="sans-serif" font-size="13" lengthAdjust="spacing" textLength="233.708" x="599.4731" y="340.4263">Confirmaci&#243;n de estado actualizado</text><polygon fill="#181818" points="287.1313,370.625,297.1313,374.625,287.1313,378.625,291.1313,374.625" style="stroke:#181818;stroke-width:1;"/><line style="stroke:#181818;stroke-width:1;" x1="42.9521" x2="293.1313" y1="374.625" y2="374.625"/><text fill="#000000" font-family="sans-serif" font-size="13" font-weight="bold" lengthAdjust="spacing" textLength="18.0908" x="49.9521" y="369.5591">10</text><text fill="#000000" font-family="sans-serif" font-size="13" lengthAdjust="spacing" textLength="204.5215" x="72.043" y="369.5591">Marcar pedido como entregado</text><polygon fill="#181818" points="557.4277,399.7578,567.4277,403.7578,557.4277,407.7578,561.4277,403.7578" style="stroke:#181818;stroke-width:1;"/><line style="stroke:#181818;stroke-width:1;" x1="299.1313" x2="563.4277" y1="403.7578" y2="403.7578"/><text fill="#000000" font-family="sans-serif" font-size="13" font-weight="bold" lengthAdjust="spacing" textLength="18.0908" x="306.1313" y="398.6919">11</text><text fill="#000000" font-family="sans-serif" font-size="13" lengthAdjust="spacing" textLength="224.2056" x="328.2222" y="398.6919">marcarPedidoEntregado(pedidoId)</text><polygon fill="#181818" points="865.6387,428.8906,875.6387,432.8906,865.6387,436.8906,869.6387,432.8906" style="stroke:#181818;stroke-width:1;"/><line style="stroke:#181818;stroke-width:1;" x1="569.4277" x2="871.6387" y1="432.8906" y2="432.8906"/><text fill="#000000" font-family="sans-serif" font-size="13" font-weight="bold" lengthAdjust="spacing" textLength="18.0908" x="576.4277" y="427.8247">12</text><text fill="#000000" font-family="sans-serif" font-size="13" lengthAdjust="spacing" textLength="262.1201" x="598.5186" y="427.8247">actualizarEstado(pedidoId, "Entregado")</text><polygon fill="#181818" points="580.4277,458.0234,570.4277,462.0234,580.4277,466.0234,576.4277,462.0234" style="stroke:#181818;stroke-width:1;"/><line style="stroke:#181818;stroke-width:1;stroke-dasharray:2.0,2.0;" x1="574.4277" x2="876.6387" y1="462.0234" y2="462.0234"/><text fill="#000000" font-family="sans-serif" font-size="13" font-weight="bold" lengthAdjust="spacing" textLength="18.0908" x="586.4277" y="456.9575">13</text><text fill="#000000" font-family="sans-serif" font-size="13" lengthAdjust="spacing" textLength="233.708" x="608.5186" y="456.9575">Confirmaci&#243;n de estado actualizado</text><polygon fill="#181818" points="53.9521,487.1563,43.9521,491.1563,53.9521,495.1563,49.9521,491.1563" style="stroke:#181818;stroke-width:1;"/><line style="stroke:#181818;stroke-width:1;" x1="47.9521" x2="298.1313" y1="491.1563" y2="491.1563"/><text fill="#000000" font-family="sans-serif" font-size="13" font-weight="bold" lengthAdjust="spacing" textLength="18.0908" x="59.9521" y="486.0903">14</text><text fill="#000000" font-family="sans-serif" font-size="13" lengthAdjust="spacing" textLength="210.0884" x="82.043" y="486.0903">Notificaci&#243;n: Pedido completado</text><!--SRC=[hL5BQiCm4Dth54DMAJGNC2MRuaMX3OP2zcDfKWPaAKWo9RrMZz2BTMp5ZjEaIGjPsHw_pxmts2RlsgQce1Jgv0EKpTOI6gzgtpg3OJTEraplIdkNWhVZy35_Mn4WbpZje2B3GbS30XRB8ua2rXHWswEYF9rXOL9KKz2KTB0emDU978Ni4QkHFBzJf_1E92CBaBrZQnEUfUOPB7unVUQO7Z9cUTRc9E4Huq8JhsH9Q_OEXqR-r4A3GGz9AdoJl_FCVZBNUf0ZjsZv0qCPqvHu3xCiDRlQXxnlE3Ie-UlJWI6WNkgWVVdyB_ts-xnocCQ3729GP_xl-EN0l4a3ezgDI_YPfe2LJxnXdUd5Vhck305qEjy0]--></g></svg>